HIERARCHY
ROOT Hips
{
	OFFSET -0.001795 -0.223333 0.028219
	CHANNELS 6 Xposition Yposition Zposition Zrotation Yrotation Xrotation 
	JOINT LeftUpLeg
	{
		OFFSET 0.069520 -0.091406 -0.006815
		CHANNELS 3 Zrotation Yrotation Xrotation
		JOINT LeftLeg
		{
			OFFSET 0.034277 -0.375199 -0.004496
			CHANNELS 3 Zrotation Yrotation Xrotation
			JOINT LeftFoot
			{
				OFFSET -0.013596 -0.397961 -0.043693
				CHANNELS 3 Zrotation Yrotation Xrotation
				JOINT LeftToe
				{
					OFFSET 0.026358 -0.055791 0.119288
					CHANNELS 3 Zrotation Yrotation Xrotation
					End Site
					{
						OFFSET 0.000000 0.000000 0.000000
					}
				}
			}
		}
	}
	JOINT RightUpLeg
	{
		OFFSET -0.067670 -0.090522 -0.004320
		CHANNELS 3 Zrotation Yrotation Xrotation
		JOINT RightLeg
		{
			OFFSET -0.038290 -0.382569 -0.008850
			CHANNELS 3 Zrotation Yrotation Xrotation
			JOINT RightFoot
			{
				OFFSET 0.015774 -0.398415 -0.042312
				CHANNELS 3 Zrotation Yrotation Xrotation
				JOINT RightToe
				{
					OFFSET -0.025372 -0.048144 0.123348
					CHANNELS 3 Zrotation Yrotation Xrotation
					End Site
					{
						OFFSET 0.000000 0.000000 0.000000
					}
				}
			}
		}
	}
	JOINT Spine
	{
		OFFSET -0.002533 0.108963 -0.026696
		CHANNELS 3 Zrotation Yrotation Xrotation
		JOINT Spine1
		{
			OFFSET 0.005487 0.135180 0.001092
			CHANNELS 3 Zrotation Yrotation Xrotation
			JOINT Spine2
			{
				OFFSET 0.001457 0.052922 0.025425
				CHANNELS 3 Zrotation Yrotation Xrotation
				JOINT Neck
				{
					OFFSET -0.002778 0.213870 -0.042857
					CHANNELS 3 Zrotation Yrotation Xrotation
					JOINT Head
					{
						OFFSET 0.005152 0.064970 0.051349
						CHANNELS 3 Zrotation Yrotation Xrotation
						End Site
						{
							OFFSET 0.000000 0.000000 0.000000
						}
					}
				}
				JOINT LeftShoulder
				{
					OFFSET 0.078845 0.121749 -0.034090
					CHANNELS 3 Zrotation Yrotation Xrotation
					JOINT LeftArm
					{
						OFFSET 0.090977 0.030469 -0.008868
						CHANNELS 3 Zrotation Yrotation Xrotation
						JOINT LeftForeArm
						{
							OFFSET 0.259612 -0.012772 -0.027456
							CHANNELS 3 Zrotation Yrotation Xrotation
							JOINT LeftHand
							{
								OFFSET 0.249234 0.008986 -0.001171
								CHANNELS 3 Zrotation Yrotation Xrotation
								End Site
								{
									OFFSET 0.000000 0.000000 0.000000
								}
							}
						}
					}
				}
				JOINT RightShoulder
				{
					OFFSET -0.081759 0.118833 -0.038615
					CHANNELS 3 Zrotation Yrotation Xrotation
					JOINT RightArm
					{
						OFFSET -0.096012 0.032551 -0.009143
						CHANNELS 3 Zrotation Yrotation Xrotation
						JOINT RightForeArm
						{
							OFFSET -0.253742 -0.013329 -0.021401
							CHANNELS 3 Zrotation Yrotation Xrotation
							JOINT RightHand
							{
								OFFSET -0.255298 0.007772 -0.005559
								CHANNELS 3 Zrotation Yrotation Xrotation
								End Site
								{
									OFFSET 0.000000 0.000000 0.000000
								}
							}
						}
					}
				}
			}
		}
	}
}
MOTION
Frames: 7
Frame Time: 0.050000
0.003282 1.042988 0.043772 1.777631 -10.682423 -3.252418 1.454004 -0.189603 -2.715061 5.790610 0.618070 -14.059250 11.014295 23.598757 102.850706 0.000000 0.000000 0.000000 1.308166 0.814826 -7.673073 -3.535074 -0.353553 -11.497242 -27.727197 -18.209365 119.204304 0.000000 0.000000 0.000000 -6.621551 0.245398 8.320846 8.012800 1.260225 -43.199039 6.357627 2.294180 58.054877 -17.845352 3.711016 -95.701004 0.000000 0.000000 0.000000 30.976199 8.548936 -4.563717 23.598397 20.369945 10.015288 7.500470 13.419745 0.402022 0.000000 0.000000 0.000000 -48.333330 -6.047355 -2.197761 -21.840500 -22.583578 8.114249 -1.069394 -6.764777 -0.134264 0.000000 0.000000 0.000000 
0.003668 1.044246 0.041037 1.564880 -10.592278 -3.007147 1.894822 -0.213918 -3.282099 5.556987 0.557352 -13.511784 8.956635 23.153597 102.570516 0.000000 0.000000 0.000000 1.815225 0.962769 -8.694915 -3.956357 -0.330126 -10.929670 -28.321476 -18.334696 119.259626 0.000000 0.000000 0.000000 -6.279560 0.212432 8.064558 7.533934 1.202717 -42.670378 6.050826 2.122432 57.815529 -16.875258 3.745872 -96.469701 0.000000 0.000000 0.000000 31.143364 7.715692 -4.527595 23.713403 20.973882 10.210289 7.965681 13.001356 0.457349 0.000000 0.000000 0.000000 -47.362097 -5.784615 -2.074792 -20.770109 -22.610115 7.752200 -2.701968 -6.720904 -0.005974 0.000000 0.000000 0.000000 
0.003798 1.044241 0.038940 1.448506 -10.989468 -3.486156 2.156852 -0.160039 -2.804070 5.504421 0.540929 -13.363339 7.443158 23.024390 102.978258 0.000000 0.000000 0.000000 1.833903 0.997091 -8.934662 -3.351809 -0.316544 -10.724245 -29.805369 -18.506807 118.821093 0.000000 0.000000 0.000000 -5.855473 0.177792 8.299650 7.558034 1.179296 -42.317221 5.496831 2.655730 57.626388 -15.723888 3.837231 -96.235806 0.000000 0.000000 0.000000 32.107686 6.348553 -4.344199 22.826132 21.471267 9.920939 9.028513 12.207799 0.568224 0.000000 0.000000 0.000000 -46.799793 -5.308420 -1.995688 -19.020620 -22.250203 7.117380 -4.706960 -7.106405 0.143046 0.000000 0.000000 0.000000 
0.003939 1.042828 0.037703 1.163753 -10.760583 -3.689308 2.741639 -0.132726 -2.839444 4.846058 0.473656 -12.697412 7.825886 22.981860 102.775026 0.000000 0.000000 0.000000 2.307700 1.019353 -8.895023 -3.364445 -0.315049 -10.660271 -31.874367 -19.086374 118.281276 0.000000 0.000000 0.000000 -5.458465 0.128564 7.942916 7.081268 1.022800 -41.181611 5.090105 2.465659 57.088995 -13.881973 3.965821 -96.848911 0.000000 0.000000 0.000000 32.005468 5.752524 -4.332564 22.457942 21.625561 9.849453 10.408845 11.367364 0.686550 0.000000 0.000000 0.000000 -45.607304 -4.679348 -1.856273 -16.897381 -22.081865 6.388268 -7.747130 -8.028024 0.381231 0.000000 0.000000 0.000000 
0.004413 1.040143 0.037310 1.140281 -10.779700 -4.341965 2.687295 -0.089874 -2.273944 4.570672 0.479757 -12.748957 9.144557 23.400028 104.421667 0.000000 0.000000 0.000000 2.167905 0.953739 -8.408092 -2.625838 -0.324172 -10.946218 -34.993912 -19.391800 118.796035 0.000000 0.000000 0.000000 -5.217151 0.104362 8.274101 7.211713 1.046342 -41.390844 4.509035 2.357400 57.259107 -12.614427 4.130599 -97.374565 0.000000 0.000000 0.000000 31.710561 4.504387 -4.278996 21.186238 21.139532 9.247483 13.450293 12.996353 1.124538 0.000000 0.000000 0.000000 -44.862930 -4.045759 -1.756973 -14.398124 -21.496160 5.482778 -10.986034 -9.380312 0.679547 0.000000 0.000000 0.000000 
0.005532 1.037217 0.037083 1.126799 -10.203310 -4.357316 2.885195 -0.103724 -2.561391 3.731189 0.475739 -12.626964 11.241875 23.654378 105.358190 0.000000 0.000000 0.000000 1.862337 0.909872 -8.170233 -2.012417 -0.331502 -11.091465 -38.595610 -19.870516 119.740474 0.000000 0.000000 0.000000 -5.057769 0.083684 8.171782 7.057350 1.018504 -41.406939 3.857087 1.693690 57.150981 -11.283633 4.351827 -97.520778 0.000000 0.000000 0.000000 31.098897 3.868289 -4.275619 19.727853 21.251926 8.744904 17.613990 13.820198 1.711132 0.000000 0.000000 0.000000 -43.404380 -3.519665 -1.543864 -11.677941 -20.710827 4.508527 -15.929216 -11.031908 1.182159 0.000000 0.000000 0.000000 
0.006889 1.034475 0.036983 1.297545 -10.123192 -5.113550 2.666391 -0.071369 -2.040855 3.750195 0.498300 -12.901376 13.245256 24.183666 108.694719 0.000000 0.000000 0.000000 1.253238 0.793779 -7.410273 -1.032856 -0.338087 -11.640664 -41.381816 -19.860536 120.889594 0.000000 0.000000 0.000000 -4.683839 0.049532 8.590147 6.843792 1.043673 -41.478595 3.593064 1.820196 57.033566 -10.678090 4.414065 -96.832677 0.000000 0.000000 0.000000 29.835527 2.492801 -3.950655 17.945559 20.789261 7.908307 21.851382 15.873631 2.509653 0.000000 0.000000 0.000000 -42.094435 -2.571051 -1.464071 -9.252931 -19.590243 3.632088 -21.394681 -13.340898 1.931072 0.000000 0.000000 0.000000 
